<svg width="180" height="180" viewBox="0 0 180 180" fill="none" xmlns="http://www.w3.org/2000/svg">
<path d="M7.09665 122.533C1.79123 129.666 -0.677673 138.481 0.160193 147.299C0.998059 156.117 5.08415 164.322 11.6402 170.35C18.1962 176.379 26.7641 179.811 35.712 179.993C44.6598 180.174 53.3624 177.091 60.1621 171.333C47.4851 169.174 35.7171 163.41 26.2941 154.745C16.8712 146.079 10.2007 134.887 7.09665 122.533V122.533Z" fill="#F50057"/>
<path d="M30.8711 70.5244C21.5493 80.7291 16.5113 94.068 16.7845 107.822C17.0576 121.575 22.6213 134.708 32.3412 144.542C42.0611 154.377 55.2053 160.172 69.0938 160.747C82.9824 161.321 96.5696 156.632 107.085 147.635C86.9054 146.637 67.8488 138.143 53.7208 123.848C39.5927 109.554 31.433 90.5118 30.8711 70.5244V70.5244Z" fill="#F50057"/>
<path d="M111.064 3.20129e-10C124.69 4.13108e-05 138.011 3.99673 149.343 11.4852C160.676 18.9736 169.511 29.6178 174.734 42.0732C179.956 54.5286 181.331 68.2362 178.685 81.4646C176.039 94.6929 169.491 106.848 159.867 116.396C150.244 125.943 137.977 132.453 124.616 135.104C111.256 137.756 97.4006 136.429 84.8017 131.291C72.2027 126.154 61.425 117.437 53.8299 106.24C46.2349 95.0444 42.1633 81.8718 42.1296 68.3868C42.1072 59.4141 43.8736 50.5251 47.3278 42.229C50.782 33.933 55.8561 26.3927 62.2595 20.0402C68.6628 13.6877 76.2696 8.64771 84.6442 5.20889C93.0188 1.77006 101.997 -2.7487e-05 111.064 3.20129e-10" fill="#F50057"/>
</svg>
